<svg id="a" xmlns="http://www.w3.org/2000/svg" viewBox="0 0 143.12 157.5"><g id="b"><g id="c"><path d="m69.37,97.63c-13.23.01-26.08-4.37-36.54-12.47v35.8c0,20.18,16.36,36.55,36.55,36.55s36.55-16.36,36.55-36.55v-35.8c-10.46,8.1-23.32,12.48-36.54,12.47" style="fill:#ddd;"/></g><g id="d"><path d="m78.28,45.92h-6.29v9.49c2.67.82,4.5,3.29,4.5,6.09v15.87c0,2.8-1.83,5.27-4.5,6.09v8.81c12.58-.58,24.57-5.52,33.92-13.97v-4.76c-.02-15.25-12.38-27.61-27.63-27.63" style="fill:#ddd;"/></g><g id="e"><path d="m32.82,78.3c9.35,8.45,21.34,13.38,33.92,13.97v-8.81c-2.67-.82-4.5-3.29-4.5-6.09v-15.87c0-2.8,1.83-5.27,4.5-6.09v-9.49h-6.29c-15.25.02-27.61,12.38-27.63,27.63v4.76Z" style="fill:#ddd;"/></g></g><g id="f"><rect x="68.98" y="27.97" width="1" height="48" style="fill:#ddd;"/></g><g id="g"><rect y="69.71" width="36.08" height="1" style="fill:#ddd;"/></g><g id="h"><rect x="102.08" y="69.71" width="41.03" height="1" style="fill:#ddd;"/></g><g id="i"><path d="m128.12,66l-5.52-5.52.82-.82,4.12,4.12v-8.41h1.15v8.41l4.12-4.12.82.82-5.52,5.52Zm-9.48-9.48l-5.52-5.52,5.52-5.52.82.82-4.12,4.12h8.41v1.15h-8.41l4.12,4.12-.82.82Zm18.96,0l-.82-.82,4.12-4.12h-8.41v-1.15h8.41l-4.12-4.12.82-.82,5.52,5.52-5.52,5.52Zm-10.05-9.89v-8.41l-4.12,4.12-.82-.82,5.52-5.52,5.52,5.52-.82.82-4.12-4.12v8.41h-1.15Z"/></g><g id="j"><path d="m.93,55.38c-.3-.68-.53-1.38-.69-2.1-.16-.73-.24-1.47-.24-2.21-.05-2.92,1.1-5.74,3.19-7.78,2.02-2.1,4.81-3.26,7.72-3.21h2.6l-3.34-3.34.74-.74,4.6,4.6-4.6,4.6-.74-.74,3.34-3.34h-2.6c-2.63-.05-5.17,1-7,2.9-1.89,1.86-2.93,4.41-2.88,7.05,0,.59.06,1.18.17,1.76.11.6.28,1.19.5,1.76l-.78.79Zm9.99,10.62l-4.6-4.6,4.6-4.6.74.74-3.34,3.34h2.6c2.63.05,5.17-1,7-2.9,1.89-1.86,2.93-4.41,2.88-7.05,0-.59-.06-1.18-.17-1.76-.11-.6-.28-1.19-.5-1.76l.78-.78c.3.68.53,1.38.69,2.1.16.73.24,1.47.24,2.21.05,2.92-1.1,5.74-3.19,7.78-2.02,2.1-4.81,3.26-7.72,3.21h-2.6l3.34,3.34-.74.74Z"/></g><g id="k"><g id="l"><path d="m83.68,28l-11.01-11.01c-.89.77-1.92,1.37-3.04,1.76-1.09.4-2.23.61-3.39.62-2.58.05-5.07-.97-6.87-2.81-1.85-1.8-2.86-4.29-2.81-6.87-.05-2.58.97-5.07,2.81-6.88C61.17.97,63.66-.05,66.24,0c2.58-.05,5.07.97,6.88,2.81,1.85,1.8,2.87,4.29,2.82,6.87,0,1.2-.22,2.4-.66,3.52-.39,1.06-.97,2.05-1.72,2.91l11.01,11.01-.88.88Zm-17.43-9.86c2.25.05,4.43-.83,6.01-2.44,1.61-1.58,2.49-3.75,2.44-6.01.05-2.25-.83-4.43-2.44-6.01-1.58-1.61-3.75-2.49-6.01-2.44-2.25-.05-4.43.83-6.01,2.44-1.61,1.58-2.49,3.75-2.44,6.01-.05,2.25.83,4.43,2.44,6.01,1.58,1.61,3.76,2.49,6.01,2.44h0Z"/></g><g id="m"><g id="n"><rect x="65.6" y="5.12" width="1" height="8.91"/></g><g id="o"><rect x="61.65" y="9.07" width="8.91" height="1"/></g></g></g></svg>